<?xml version="1.0" encoding="iso-8859-1"?>
<!-- Generator: Adobe Illustrator 19.0.0, SVG Export Plug-In . SVG Version: 6.00 Build 0)  -->
<svg version="1.1" id="Capa_1" xmlns="http://www.w3.org/2000/svg" xmlns:xlink="http://www.w3.org/1999/xlink" x="0px" y="0px"
	 viewBox="0 0 448 448" style="enable-background:new 0 0 448 448;" xml:space="preserve">
<circle style="fill:#FFFBF5;" cx="216" cy="224" r="216"/>
<path style="fill:#5AB5E6;" d="M424,200h-33.672C378.616,114.159,305.056,48,216,48c-97.202,0-176,78.798-176,176
	s78.798,176,176,176c89.056,0,162.616-66.159,174.328-152H424c13.255,0,24-10.745,24-24S437.255,200,424,200z M216,368
	c-79.529,0-144-64.471-144-144c0-79.529,64.471-144,144-144s144,64.471,144,144C360,303.529,295.529,368,216,368z"/>
<path style="fill:#7D5A13;" d="M216,80c-79.529,0-144,64.471-144,144c0,79.529,64.471,144,144,144s144-64.471,144-144
	C360,144.471,295.529,80,216,80z"/>
<g>
	<path style="fill:#FFFBF5;" d="M216,312.901l-96-96C120,274.339,158.563,312.901,216,312.901z"/>
	<path style="fill:#FFFBF5;" d="M312,216.901l-96,96C273.438,312.901,312,274.339,312,216.901z"/>
	<path style="fill:#FFFBF5;" d="M216,256.901c39.765,0,64-40.236,64-80l-64,56l-64-56C152,216.666,176.235,256.901,216,256.901z"/>
	<path style="fill:#FFFBF5;" d="M216,200.901l37.404-37.404c6.328-6.328,7.896-15.996,3.895-24
		c-5.135-10.271-17.624-14.434-27.895-9.298L216,136.901l-13.404-6.702c-10.271-5.135-22.759-0.972-27.895,9.298
		c-4.002,8.004-2.433,17.672,3.895,24L216,200.901z"/>
</g>
<path style="fill:#8F6716;" d="M344,224h-16c0-61.758-50.242-112-112-112V96C286.578,96,344,153.422,344,224z"/>
<g>
</g>
<g>
</g>
<g>
</g>
<g>
</g>
<g>
</g>
<g>
</g>
<g>
</g>
<g>
</g>
<g>
</g>
<g>
</g>
<g>
</g>
<g>
</g>
<g>
</g>
<g>
</g>
<g>
</g>
</svg>
