<svg id="Layer_1" enable-background="new 0 0 512 512" height="512" viewBox="0 0 512 512" width="512" xmlns="http://www.w3.org/2000/svg"><g><path d="m288.134 160.667c79.145 0 143.533 64.389 143.533 143.534v64.267c0 8.284-6.716 15-15 15h-321.334c-8.284 0-15-6.716-15-15v-64.268c0-79.145 64.389-143.534 143.533-143.534h64.268z" fill="#ff7038"/><path d="m431.667 368.467v-64.267c0-79.145-64.389-143.534-143.533-143.534h-32.134v222.8h160.667c8.284.001 15-6.715 15-14.999z" fill="#ff4a4a"/><path d="m416.667 512h-321.334c-8.284 0-15-6.716-15-15v-64.267c0-8.284 6.716-15 15-15h321.334c8.284 0 15 6.716 15 15v64.267c0 8.284-6.716 15-15 15z" fill="#36302a"/><path d="m431.667 497v-64.267c0-8.284-6.716-15-15-15h-160.667v94.267h160.667c8.284 0 15-6.716 15-15z" fill="#161816"/><path d="m320.267 383.467h-128.534c-8.284 0-15-6.716-15-15v-64.267c0-8.284 6.716-15 15-15h128.533c8.284 0 15 6.716 15 15v64.267c.001 8.284-6.715 15-14.999 15z" fill="#36302a"/><path d="m335.267 368.467v-64.267c0-8.284-6.716-15-15-15h-64.267v94.267h64.267c8.284 0 15-6.716 15-15z" fill="#161816"/><path d="m448.8 447.733h-385.6c-8.284 0-15-6.716-15-15v-64.267c0-8.284 6.716-15 15-15h385.6c8.284 0 15 6.716 15 15v64.267c0 8.285-6.716 15-15 15z" fill="#faf8f6"/><path d="m463.8 432.733v-64.267c0-8.284-6.716-15-15-15h-192.8v94.267h192.8c8.284 0 15-6.715 15-15z" fill="#f2eee7"/><path d="m288.134 254.933h-64.268c-8.284 0-15-6.716-15-15v-64.267c0-8.284 6.716-15 15-15h64.268c8.284 0 15 6.716 15 15v64.267c0 8.284-6.716 15-15 15z" fill="#faf8f6"/><path d="m303.134 239.933v-64.267c0-8.284-6.716-15-15-15h-32.134v94.267h32.134c8.284 0 15-6.716 15-15z" fill="#f2eee7"/><path d="m398.392 73.526c-2.322-5.605-7.791-9.26-13.858-9.26h-257.067c-6.067 0-11.536 3.655-13.858 9.26-2.321 5.605-1.038 12.057 3.252 16.347l92.006 92.006h94.268l92.006-92.006c4.289-4.29 5.572-10.742 3.251-16.347z" fill="#f2eee7"/><path d="m395.14 89.873c4.29-4.29 5.573-10.742 3.252-16.347-2.322-5.605-7.791-9.26-13.858-9.26h-128.534v117.613h47.134z" fill="#e9e3d6"/><path d="m112.467 79.267v-64.267c0-8.284 6.716-15 15-15h257.066c8.284 0 15 6.716 15 15v64.267z" fill="#faf8f6"/><path d="m399.533 15c0-8.284-6.716-15-15-15h-128.533v79.267h143.533z" fill="#f2eee7"/></g></svg>